HIERARCHY
ROOT mixamorig:Hips
{
	OFFSET 0.000000 35.069874 -0.029489
	CHANNELS 6 Xposition Yposition Zposition Xrotation Yrotation Zrotation
	JOINT mixamorig:Spine
	{
		OFFSET 0.000000 6.876060 0.125662
		CHANNELS 3 Xrotation Yrotation Zrotation
		JOINT mixamorig:Spine1
		{
			OFFSET 0.000000 8.022060 0.146603
			CHANNELS 3 Xrotation Yrotation Zrotation
			JOINT mixamorig:Spine2
			{
				OFFSET 0.000000 9.168079 0.167547
				CHANNELS 3 Xrotation Yrotation Zrotation
				JOINT mixamorig:Neck
				{
					OFFSET 0.000000 10.314075 0.188489
					CHANNELS 3 Xrotation Yrotation Zrotation
					JOINT mixamorig:Head
					{
						OFFSET 0.000000 7.643753 -2.377445
						CHANNELS 3 Xrotation Yrotation Zrotation
						JOINT mixamorig:HeadTop_End
						{
							OFFSET 0.000000 43.788605 -13.619637
							CHANNELS 3 Xrotation Yrotation Zrotation
							End Site
							{
								OFFSET 0.000000 45.857788 0.000000
							}
						}
					}
				}
				JOINT mixamorig:LeftShoulder
				{
					OFFSET 4.392187 8.825001 0.174995
					CHANNELS 3 Xrotation Yrotation Zrotation
					JOINT mixamorig:LeftArm
					{
						OFFSET 8.774866 -2.970879 -0.026997
						CHANNELS 3 Xrotation Yrotation Zrotation
						JOINT mixamorig:LeftForeArm
						{
							OFFSET 8.450586 -0.797432 -0.648343
							CHANNELS 3 Xrotation Yrotation Zrotation
							JOINT mixamorig:LeftHand
							{
								OFFSET 18.458662 0.962311 0.193148
								CHANNELS 3 Xrotation Yrotation Zrotation
								JOINT mixamorig:LeftHandThumb1
								{
									OFFSET 2.379990 -1.333382 2.680594
									CHANNELS 3 Xrotation Yrotation Zrotation
									JOINT mixamorig:LeftHandThumb2
									{
										OFFSET 1.903984 -1.066746 2.144473
										CHANNELS 3 Xrotation Yrotation Zrotation
										JOINT mixamorig:LeftHandThumb3
										{
											OFFSET 0.966393 -1.489639 2.964555
											CHANNELS 3 Xrotation Yrotation Zrotation
											JOINT mixamorig:LeftHandThumb4
											{
												OFFSET 1.205181 -0.823021 1.625701
												CHANNELS 3 Xrotation Yrotation Zrotation
												End Site
												{
													OFFSET 1.050617 -0.818157 1.731923
												}
											}
										}
									}
								}
								JOINT mixamorig:LeftHandIndex1
								{
									OFFSET 7.830624 -0.787468 2.563931
									CHANNELS 3 Xrotation Yrotation Zrotation
									JOINT mixamorig:LeftHandIndex2
									{
										OFFSET 3.312897 -0.052605 1.515312
										CHANNELS 3 Xrotation Yrotation Zrotation
										JOINT mixamorig:LeftHandIndex3
										{
											OFFSET 3.460667 -0.207008 1.581951
											CHANNELS 3 Xrotation Yrotation Zrotation
											JOINT mixamorig:LeftHandIndex4
											{
												OFFSET 2.183182 0.110458 0.999585
												CHANNELS 3 Xrotation Yrotation Zrotation
												End Site
												{
													OFFSET 2.183868 0.110451 0.998074
												}
											}
										}
									}
								}
								JOINT mixamorig:LeftHandMiddle1
								{
									OFFSET 8.556145 -0.261200 0.258753
									CHANNELS 3 Xrotation Yrotation Zrotation
									JOINT mixamorig:LeftHandMiddle2
									{
										OFFSET 3.828903 -0.489014 -0.111505
										CHANNELS 3 Xrotation Yrotation Zrotation
										JOINT mixamorig:LeftHandMiddle3
										{
											OFFSET 3.696209 -0.166595 -0.107596
											CHANNELS 3 Xrotation Yrotation Zrotation
											JOINT mixamorig:LeftHandMiddle4
											{
												OFFSET 2.259281 0.534500 -0.065675
												CHANNELS 3 Xrotation Yrotation Zrotation
												End Site
												{
													OFFSET 2.259735 0.534134 -0.051267
												}
											}
										}
									}
								}
								JOINT mixamorig:LeftHandRing1
								{
									OFFSET 8.509293 -0.556679 -3.044941
									CHANNELS 3 Xrotation Yrotation Zrotation
									JOINT mixamorig:LeftHandRing2
									{
										OFFSET 2.995171 -0.303261 -0.843591
										CHANNELS 3 Xrotation Yrotation Zrotation
										JOINT mixamorig:LeftHandRing3
										{
											OFFSET 2.968273 -0.101997 -0.834287
											CHANNELS 3 Xrotation Yrotation Zrotation
											JOINT mixamorig:LeftHandRing4
											{
												OFFSET 1.521358 -0.461468 -0.418735
												CHANNELS 3 Xrotation Yrotation Zrotation
												End Site
												{
													OFFSET 1.516514 -0.460747 -0.436712
												}
											}
										}
									}
								}
							}
						}
					}
				}
				JOINT mixamorig:RightShoulder
				{
					OFFSET -4.392150 8.825024 0.141388
					CHANNELS 3 Xrotation Yrotation Zrotation
					JOINT mixamorig:RightArm
					{
						OFFSET -8.774886 -2.970947 -0.094209
						CHANNELS 3 Xrotation Yrotation Zrotation
						JOINT mixamorig:RightForeArm
						{
							OFFSET -8.450586 -0.797386 -0.330665
							CHANNELS 3 Xrotation Yrotation Zrotation
							JOINT mixamorig:RightHand
							{
								OFFSET -18.458664 0.962341 0.025780
								CHANNELS 3 Xrotation Yrotation Zrotation
								JOINT mixamorig:RightHandThumb1
								{
									OFFSET -2.390282 -1.240040 2.604684
									CHANNELS 3 Xrotation Yrotation Zrotation
									JOINT mixamorig:RightHandThumb2
									{
										OFFSET -1.912228 -0.992111 2.083740
										CHANNELS 3 Xrotation Yrotation Zrotation
										JOINT mixamorig:RightHandThumb3
										{
											OFFSET -0.876358 -1.555370 2.930126
											CHANNELS 3 Xrotation Yrotation Zrotation
											JOINT mixamorig:RightHandThumb4
											{
												OFFSET -1.227077 -0.755932 1.835223
												CHANNELS 3 Xrotation Yrotation Zrotation
												End Site
												{
													OFFSET -1.124962 -0.750702 1.901603
												}
											}
										}
									}
								}
								JOINT mixamorig:RightHandIndex1
								{
									OFFSET -8.716801 -0.633743 3.098187
									CHANNELS 3 Xrotation Yrotation Zrotation
									JOINT mixamorig:RightHandIndex2
									{
										OFFSET -3.319706 -0.240585 1.198087
										CHANNELS 3 Xrotation Yrotation Zrotation
										JOINT mixamorig:RightHandIndex3
										{
											OFFSET -3.153255 -0.154724 1.138827
											CHANNELS 3 Xrotation Yrotation Zrotation
											JOINT mixamorig:RightHandIndex4
											{
												OFFSET -1.818684 -0.003197 0.655154
												CHANNELS 3 Xrotation Yrotation Zrotation
												End Site
												{
													OFFSET -1.818668 -0.003197 0.655188
												}
											}
										}
									}
								}
								JOINT mixamorig:RightHandMiddle1
								{
									OFFSET -8.158691 -0.528496 0.196552
									CHANNELS 3 Xrotation Yrotation Zrotation
									JOINT mixamorig:RightHandMiddle2
									{
										OFFSET -3.890194 -0.261169 -0.136423
										CHANNELS 3 Xrotation Yrotation Zrotation
										JOINT mixamorig:RightHandMiddle3
										{
											OFFSET -3.903057 -0.179909 -0.137173
											CHANNELS 3 Xrotation Yrotation Zrotation
											JOINT mixamorig:RightHandMiddle4
											{
												OFFSET -2.366261 0.198380 -0.083987
												CHANNELS 3 Xrotation Yrotation Zrotation
												End Site
												{
													OFFSET -2.366409 0.198326 -0.079799
												}
											}
										}
									}
								}
								JOINT mixamorig:RightHandRing1
								{
									OFFSET -7.616104 -0.395126 -2.681268
									CHANNELS 3 Xrotation Yrotation Zrotation
									JOINT mixamorig:RightHandRing2
									{
										OFFSET -3.235790 -0.462120 -1.101476
										CHANNELS 3 Xrotation Yrotation Zrotation
										JOINT mixamorig:RightHandRing3
										{
											OFFSET -3.179264 -0.138618 -1.084847
											CHANNELS 3 Xrotation Yrotation Zrotation
											JOINT mixamorig:RightHandRing4
											{
												OFFSET -1.963291 -0.101624 -0.668250
												CHANNELS 3 Xrotation Yrotation Zrotation
												End Site
												{
													OFFSET -1.963745 -0.101669 -0.666919
												}
											}
										}
									}
								}
							}
						}
					}
				}
			}
		}
	}
	JOINT mixamorig:LeftUpLeg
	{
		OFFSET 10.205382 -3.823519 0.155145
		CHANNELS 3 Xrotation Yrotation Zrotation
		JOINT mixamorig:LeftLeg
		{
			OFFSET 0.283732 -12.998343 0.567794
			CHANNELS 3 Xrotation Yrotation Zrotation
			JOINT mixamorig:LeftFoot
			{
				OFFSET -1.058953 -10.688869 -2.184322
				CHANNELS 3 Xrotation Yrotation Zrotation
				JOINT mixamorig:LeftToeBase
				{
					OFFSET 0.108145 -7.191069 7.560211
					CHANNELS 3 Xrotation Yrotation Zrotation
					JOINT mixamorig:LeftToe_End
					{
						OFFSET 0.070226 0.081726 4.490266
						CHANNELS 3 Xrotation Yrotation Zrotation
						End Site
						{
							OFFSET 0.070226 0.081726 4.490267
						}
					}
				}
			}
		}
	}
	JOINT mixamorig:RightUpLeg
	{
		OFFSET -10.205383 -3.823513 0.005508
		CHANNELS 3 Xrotation Yrotation Zrotation
		JOINT mixamorig:RightLeg
		{
			OFFSET -0.283728 -12.998341 0.610627
			CHANNELS 3 Xrotation Yrotation Zrotation
			JOINT mixamorig:RightFoot
			{
				OFFSET 1.058956 -10.688892 -1.945833
				CHANNELS 3 Xrotation Yrotation Zrotation
				JOINT mixamorig:RightToeBase
				{
					OFFSET -0.108150 -7.191040 7.372945
					CHANNELS 3 Xrotation Yrotation Zrotation
					JOINT mixamorig:RightToe_End
					{
						OFFSET -0.070229 0.081738 4.479398
						CHANNELS 3 Xrotation Yrotation Zrotation
						End Site
						{
							OFFSET -0.070229 0.081738 4.479399
						}
					}
				}
			}
		}
	}
}
MOTION
Frames: 4
Frame Time: 0.016667
0.679664 33.808674 -1.439733 -2.395514 -5.336011 -1.191772 10.453931 3.098806 -2.640391 1.287661 0.463882 -0.136534 1.285365 0.467079 -0.136833 8.055008 -0.951943 1.103944 27.633998 -3.597782 4.786168 0.000003 0.000000 -0.000000 0.485187 -1.309935 -4.464099 8.704608 -33.508211 -61.584216 -3.409953 -30.086987 -9.231854 5.069890 3.100523 15.049991 7.206976 22.123618 2.997322 -0.444002 41.589196 16.346941 1.270540 0.392918 -1.562969 -0.000001 -0.000001 -0.000001 5.776539 23.866339 -12.269076 4.726053 1.552225 -9.923620 7.273386 0.758244 -15.625239 -0.000001 0.000003 -0.000000 -0.191361 -2.581341 0.565365 0.072904 2.511959 -19.944180 -0.495439 2.025599 -27.199246 -0.000001 -0.000000 0.000001 -2.056237 -16.042477 -3.929846 -4.227687 3.234723 -17.142361 1.126453 2.326681 2.860649 -0.000002 0.000006 -0.000004 0.402377 0.220805 3.898082 1.995354 49.724856 61.026408 -2.059907 19.365205 8.710673 -0.535787 4.688168 -4.770762 8.434222 -22.549130 -3.895514 2.469778 -41.134350 -16.945944 7.705639 2.039325 2.979273 0.000001 -0.000001 -0.000000 4.063373 -19.192241 7.975295 7.107748 -1.238208 18.654015 3.581213 -0.646290 9.709168 -0.000002 -0.000001 0.000001 -0.331481 2.177062 7.605306 -0.037332 -2.870259 19.646221 -0.396427 -1.232653 15.142791 0.000001 -0.000002 -0.000001 -3.104197 18.585660 3.945166 -6.529698 -4.710827 22.284293 -2.180549 -1.608935 6.849716 0.000001 0.000001 0.000002 -7.329782 16.268752 2.355816 26.891747 0.694121 -0.999415 -17.784494 -2.237875 2.886204 -0.909411 -0.000007 0.000015 -0.000000 -0.000001 0.000000 -8.299558 -6.025465 -0.377246 24.539032 -7.229574 0.746949 -13.655893 -0.896014 1.212358 -1.532686 -0.000002 0.000008 -0.000000 0.000003 0.000000 
0.711645 33.798012 -1.455825 -2.355992 -5.405107 -1.197890 10.570963 2.970584 -2.672700 1.342937 0.445992 -0.097744 1.341012 0.450285 -0.098309 7.812121 -0.832976 1.087478 27.007376 -2.941878 3.920408 0.000001 0.000000 -0.000001 0.481566 -1.261231 -4.282027 9.407103 -33.422284 -61.050744 -3.651668 -31.960306 -9.358301 6.624472 3.566632 13.844975 7.207212 22.124547 2.997535 -0.445117 41.592785 16.348599 1.271271 0.396660 -1.561655 0.000003 -0.000002 0.000001 5.987509 23.890820 -12.752364 5.026732 1.601226 -10.546611 7.494878 0.774564 -16.092124 -0.000005 0.000002 0.000001 -0.193088 -2.552628 0.388890 0.104497 2.650499 -20.804667 -0.488150 2.113137 -27.706259 0.000003 0.000001 -0.000000 -2.151354 -15.967907 -4.323211 -4.377496 3.423428 -17.859524 1.012610 2.408360 2.370482 0.000001 0.000004 -0.000001 0.423689 0.558673 3.715950 0.840595 50.347517 61.411788 -1.941516 18.243915 8.671596 -0.867782 4.616504 -3.993122 8.434286 -22.553780 -3.898365 2.471268 -41.138270 -16.946432 7.708084 2.033436 2.977604 0.000002 0.000003 0.000000 4.138554 -19.207462 8.183796 7.278946 -1.242581 19.094176 3.651004 -0.659717 9.894362 0.000000 -0.000001 0.000000 -0.332241 2.146669 7.800581 -0.025286 -2.941748 20.110041 -0.397653 -1.264051 15.337857 -0.000002 0.000002 -0.000000 -3.162548 18.545762 4.149200 -6.631608 -4.845856 22.713145 -2.236660 -1.652217 7.032583 -0.000001 -0.000001 0.000001 -7.281175 16.332490 2.153033 26.729626 0.162106 -0.738034 -17.724901 -1.497478 2.662439 -0.667508 -0.000013 0.000014 -0.000000 -0.000000 0.000000 -8.396634 -5.953766 -0.466958 24.643568 -6.948315 0.967559 -13.694591 -1.225008 1.039005 -1.077519 -0.000011 0.000007 0.000000 -0.000001 -0.000000 
0.743964 33.797428 -1.462133 -2.309008 -5.473527 -1.194610 10.723070 2.851643 -2.717626 1.351403 0.429977 -0.072926 1.349988 0.434958 -0.073878 7.580852 -0.716625 1.102874 26.431891 -2.286865 3.346544 0.000004 0.000000 -0.000000 0.476160 -1.237118 -4.003721 9.950499 -33.065656 -60.823893 -3.874681 -33.622713 -9.480773 8.045150 3.804991 12.837198 7.207812 22.126840 2.998021 -0.447783 41.601238 16.352504 1.273021 0.405516 -1.558513 0.000002 -0.000002 0.000001 6.162438 23.909876 -13.152765 5.273609 1.638952 -11.057497 7.676148 0.786592 -16.474129 -0.000001 0.000002 -0.000002 -0.194431 -2.528754 0.242074 0.131869 2.763457 -21.508575 -0.481617 2.184743 -28.121101 0.000002 -0.000000 -0.000000 -2.228941 -15.906237 -4.645772 -4.498489 3.579431 -18.446831 0.919978 2.475888 1.969538 0.000001 0.000002 -0.000002 0.441752 0.831630 3.513580 -0.492706 50.271463 62.207034 -1.848638 17.353620 8.642498 -0.810204 4.370002 -3.307511 8.434446 -22.565268 -3.905445 2.475043 -41.147901 -16.947543 7.714154 2.018929 2.973443 0.000002 -0.000000 -0.000001 4.215945 -19.222838 8.398328 7.445362 -1.245583 19.521936 3.722817 -0.673307 10.084845 0.000001 0.000001 -0.000004 -0.332919 2.115400 8.001459 -0.013025 -3.011134 20.560828 -0.398808 -1.296377 15.538484 -0.000000 0.000001 -0.000001 -3.222419 18.504521 4.359003 -6.729681 -4.977816 23.129756 -2.294255 -1.696935 7.220638 -0.000004 0.000001 0.000002 -7.217545 16.454071 1.862474 26.565001 -0.144649 -0.378920 -17.679887 -0.986958 2.524540 -0.613030 -0.000003 0.000015 0.000000 -0.000002 0.000000 -8.488206 -5.935401 -0.523161 24.627716 -6.511919 1.058174 -13.640824 -1.577109 0.892837 -1.501398 -0.000002 0.000008 0.000000 0.000001 0.000000 
0.777160 33.803005 -1.462537 -2.257799 -5.534811 -1.185713 10.892689 2.755898 -2.782611 1.315028 0.417841 -0.058518 1.314122 0.423145 -0.059970 7.392582 -0.600986 1.118460 25.891005 -1.672006 3.046637 -0.000001 0.000001 -0.000000 0.469440 -1.240778 -3.641694 10.472351 -32.444881 -60.718886 -4.109276 -35.303865 -9.615224 9.532177 4.036013 11.878929 7.208682 22.130127 2.998740 -0.451698 41.613621 16.358245 1.275577 0.418504 -1.553910 0.000001 -0.000003 -0.000001 6.347683 23.928816 -13.576488 5.504941 1.672268 -11.535790 7.841671 0.796501 -16.822823 0.000001 -0.000000 -0.000001 -0.195867 -2.502311 0.079554 0.157953 2.865788 -22.148283 -0.475186 2.250034 -28.499721 -0.000002 -0.000002 -0.000000 -2.302129 -15.847415 -4.951250 -4.609545 3.725546 -18.992610 0.835857 2.538074 1.603702 -0.000001 0.000003 -0.000007 0.453562 1.012082 3.287896 -1.696782 49.698611 63.062884 -1.795452 16.839650 8.626447 -0.537647 3.829145 -2.570765 8.434705 -22.582784 -3.916223 2.480739 -41.162647 -16.949307 7.723403 1.996755 2.967100 0.000000 0.000000 0.000001 4.315355 -19.242204 8.673678 7.643049 -1.247509 20.030008 3.815060 -0.690357 10.329374 -0.000001 0.000001 0.000004 -0.333619 2.075257 8.259233 0.002266 -3.093401 21.096269 -0.400119 -1.337845 15.796011 0.000000 0.000000 -0.000001 -3.298982 18.451266 4.628085 -6.844926 -5.135454 23.624391 -2.367924 -1.754579 7.461959 -0.000005 -0.000004 -0.000001 -7.269920 16.513205 1.612440 26.562432 -0.204188 -0.175857 -17.675625 -0.865935 2.725871 -0.798171 -0.000015 0.000015 -0.000000 -0.000001 -0.000000 -8.583571 -5.887147 -0.579030 24.553878 -6.109592 1.095137 -13.530076 -1.857255 0.802051 -2.129589 -0.000010 0.000006 -0.000000 -0.000002 0.000000 
